<svg width="121" height="139" viewBox="0 0 121 139" xmlns="http://www.w3.org/2000/svg">
<path fill-rule="evenodd" clip-rule="evenodd" d="M58.5768 0.787671C57.7104 1.05195 4.45012 31.8582 2.62762 33.1491C2.12195 33.5075 1.38398 34.474 0.988068 35.297C0.273913 36.7813 0.268066 37.0535 0.268066 69.5654C0.268066 102.332 0.268046 102.338 1.00602 103.871C1.52239 104.944 2.27382 105.742 3.50849 106.526C4.47911 107.143 17.2331 114.589 31.8511 123.071L58.4291 138.496L60.5057 138.498L62.5822 138.5L87.0837 124.284C120.992 104.611 118.828 105.939 119.858 104.17L120.732 102.669V69.6077C120.732 37.8505 120.706 36.4955 120.078 35.2578C119.719 34.5493 119.136 33.7176 118.784 33.4099C117.659 32.4278 63.4478 1.10715 62.2984 0.775504C61.012 0.404264 59.8208 0.408096 58.5768 0.787671ZM31.7765 23.4851L6.50496 38.1367L6.49283 67.5685C6.48627 83.7558 6.57844 97.0003 6.69718 97.0003C6.81592 97.0003 11.6045 94.2711 17.3381 90.9348C23.0721 87.5988 27.9841 84.7865 28.2537 84.6851C28.8373 84.4657 31.9049 89.6279 31.4489 90.0613C31.2905 90.2121 26.3735 93.1077 20.5229 96.4964C12.0328 101.414 9.97696 102.742 10.3404 103.074C10.7287 103.428 60.3047 132.249 60.5267 132.249C60.5701 132.249 72.0229 125.618 85.9774 117.513L111.349 102.778L100.422 96.419C94.4116 92.9216 89.4943 89.9415 89.4943 89.7971C89.4943 89.4213 92.0838 84.8862 92.4166 84.6792C92.5691 84.5844 97.5223 87.3178 103.424 90.7534C109.325 94.1894 114.236 97.0003 114.336 97.0003C114.437 97.0003 114.516 83.7558 114.513 67.5685L114.506 38.1367L89.2289 23.4809L63.9518 8.8247L63.8614 21.6577L63.771 34.4903H60.5001H57.2293L57.1388 21.6619L57.0484 8.83306L31.7765 23.4851ZM17.9535 45.1854C18.0426 45.5289 27.5557 62.2579 39.0934 82.3611C53.5073 107.476 60.2299 118.88 60.5775 118.809C61.0963 118.703 103.129 45.7935 103.129 45.0003C103.129 44.6489 94.6191 44.5613 60.4597 44.5613C19.5637 44.5613 17.7979 44.5874 17.9535 45.1854ZM35.32 51.1089C35.5002 51.2721 40.9387 54.4758 47.4051 58.2281C57.2486 63.9401 59.3835 65.0507 60.5215 65.0497C61.6595 65.049 63.8041 63.9294 73.6918 58.1733C80.1879 54.3914 85.6115 51.1884 85.7441 51.0547C85.8766 50.9214 74.5116 50.8123 60.4887 50.8123C46.3654 50.8123 35.1385 50.9447 35.32 51.1089ZM44.3424 78.6814C51.2734 90.7622 57.0067 100.712 57.0826 100.792C57.1589 100.871 57.221 94.5149 57.221 86.6664V72.3967L56.3609 71.3684C55.6588 70.5291 32.6367 56.7161 31.9395 56.7161C31.83 56.7161 37.4114 66.6006 44.3424 78.6814ZM77.2408 63.4918C70.8811 67.2073 65.2503 70.7218 64.7284 71.3011L63.7792 72.3547V86.6646C63.7792 98.718 63.852 100.867 64.2407 100.29C64.4944 99.9133 68.8673 92.3381 73.9586 83.4565C79.0498 74.5748 84.5836 64.925 86.2563 62.0121C87.929 59.0991 89.1865 56.7206 89.0508 56.7258C88.9152 56.7313 83.6006 59.7759 77.2408 63.4918Z" fill="#000000"></path>
</svg>