<svg version="1.1" id="Layer_1" xmlns="http://www.w3.org/2000/svg" xmlns:xlink="http://www.w3.org/1999/xlink" x="0px" y="0px"
	 width="100%" viewBox="0 0 500 500" xml:space="preserve">
<path fill="#000000" opacity="1.000000" stroke="none" 
	d="
M501.000000,38.600002 
	C499.322815,41.115471 497.303833,43.043121 496.021973,45.375828 
	C484.717529,65.948051 473.562256,86.602142 462.327026,107.212494 
	C450.248383,129.370056 438.136810,151.509659 426.029175,173.651398 
	C414.384583,194.946396 402.715607,216.228058 391.077728,237.526718 
	C379.054688,259.530273 367.037659,281.537109 355.053558,303.561890 
	C347.221954,317.955078 339.491882,332.403534 331.648407,346.790222 
	C319.557404,368.967896 307.413788,391.116882 295.281830,413.272156 
	C285.867584,430.464417 276.445038,447.652161 266.995575,464.825012 
	C266.376129,465.950745 265.495270,466.932617 264.429474,468.404816 
	C257.132721,456.599426 250.081268,445.127075 242.966110,433.694336 
	C232.337830,416.616730 221.648178,399.577271 211.014893,382.502747 
	C198.341461,362.152252 185.691040,341.787415 173.047485,321.418335 
	C162.785721,304.886353 152.566513,288.327942 142.296417,271.801178 
	C129.557861,251.302078 116.765762,230.836258 104.035187,210.332214 
	C92.753021,192.161026 81.543457,173.944748 70.265274,155.771057 
	C57.539856,135.265320 44.751812,114.798409 32.032219,94.289047 
	C22.455172,78.846794 12.950085,63.359917 3.368520,47.920479 
	C3.080747,47.456772 2.295323,47.301895 1.370960,47.001518 
	C1.000000,45.933331 1.000000,44.866661 1.467398,43.399994 
	C8.181046,42.666668 14.423723,42.161945 20.674208,42.031620 
	C40.738380,41.613285 60.805420,41.332260 80.871391,41.000309 
	C101.103813,40.665604 121.336266,40.332294 141.568726,40.000328 
	C161.967651,39.665634 182.366669,39.336521 202.765549,38.999104 
	C222.665070,38.669945 242.564377,38.329029 262.463928,38.001247 
	C283.029297,37.662502 303.594879,37.338600 324.160217,36.998497 
	C343.893280,36.672161 363.625488,36.288158 383.359222,36.011097 
	C410.251129,35.633530 437.143616,35.286991 464.036804,35.020752 
	C476.356720,34.898785 488.678864,35.000000 501.000000,35.000000 
	C501.000000,36.066669 501.000000,37.133339 501.000000,38.600002 
M97.007019,148.512207 
	C148.828568,232.274796 200.650116,316.037384 253.174393,400.935822 
	C255.244492,387.733887 257.135437,375.760895 258.995270,363.783112 
	C260.239624,355.769409 261.475006,347.754028 262.650940,339.730072 
	C264.134430,329.607574 265.521179,319.470856 267.010406,309.349213 
	C268.167175,301.486755 269.435089,293.640747 270.621124,285.782532 
	C272.098175,275.996063 273.531738,266.203064 275.003235,256.415771 
	C276.184875,248.556412 277.600159,240.725693 278.537750,232.837814 
	C279.579498,224.073898 280.298248,215.266205 280.876556,206.459122 
	C280.952026,205.309570 279.632904,203.542786 278.491638,202.920914 
	C267.907288,197.153412 257.230835,191.554230 246.560699,185.944992 
	C226.205215,175.244202 205.845566,164.551300 185.470703,153.887482 
	C160.673721,140.909195 135.856552,127.969482 111.053421,115.002953 
	C96.661407,107.479134 82.296600,99.902916 67.870865,92.444443 
	C66.188782,91.574768 64.195770,91.306458 61.072475,90.382240 
	C73.430145,110.485497 84.954041,129.232376 97.007019,148.512207 
M294.321472,177.028748 
	C295.296539,177.100388 296.636536,177.623932 297.191772,177.175629 
	C305.060730,170.822220 312.847137,164.365494 320.605804,157.876755 
	C331.131683,149.073761 341.566711,140.161575 352.131989,131.406311 
	C365.059265,120.693672 378.087891,110.103424 391.059662,99.444397 
	C402.397736,90.127815 413.750458,80.828529 425.026672,71.437485 
	C428.582520,68.476074 431.911987,65.242836 435.345062,62.134007 
	C433.562378,61.000004 432.318359,60.985340 431.074829,61.002174 
	C406.663025,61.332558 382.251404,61.678951 357.839447,61.996571 
	C331.095245,62.344532 304.350647,62.663399 277.606293,63.000912 
	C251.528305,63.330017 225.451050,63.729729 199.372345,63.985287 
	C159.632446,64.374718 119.891617,64.668922 80.151131,64.996117 
	C76.599205,65.025360 73.046837,65.000000 69.494675,65.000000 
	C90.900963,76.441261 112.539795,86.936295 134.098083,97.594238 
	C156.459320,108.649147 178.730942,119.885185 201.062744,130.999832 
	C231.885666,146.340546 262.728271,161.641754 294.321472,177.028748 
M293.002625,301.664337 
	C292.990295,302.830322 293.136475,304.023590 292.941223,305.158081 
	C290.993530,316.475525 288.942963,327.775299 287.013306,339.095734 
	C284.646851,352.978760 282.295990,366.865295 280.097046,380.775421 
	C279.466400,384.764862 279.384521,388.841034 279.050995,392.877472 
	C279.473206,392.976959 279.895416,393.076447 280.317627,393.175934 
	C281.101807,392.041931 282.005737,390.971863 282.651306,389.763794 
	C287.800598,380.127441 292.868469,370.447601 298.022278,360.813660 
	C313.945526,331.048584 329.903503,301.302032 345.832214,271.539886 
	C353.567902,257.086121 361.276825,242.617996 368.983337,228.148621 
	C382.657928,202.473831 396.307800,176.785889 409.997040,151.118912 
	C414.611969,142.466095 419.427094,133.918503 423.947601,125.217300 
	C428.999756,115.492699 433.821136,105.648201 438.742950,95.855888 
	C438.341400,95.527344 437.939850,95.198799 437.538330,94.870255 
	C436.579773,95.209785 435.411652,95.306374 434.694153,95.925346 
	C424.146515,105.024178 413.644104,114.175735 403.161621,123.349739 
	C394.767578,130.695984 386.471039,138.154495 378.030304,145.446335 
	C366.636627,155.289185 355.160828,165.037155 343.692505,174.793243 
	C335.231506,181.991013 326.827759,189.261719 318.206970,196.264160 
	C311.852081,201.426056 307.446625,207.067520 306.784454,215.917313 
	C305.915710,227.528046 303.573822,239.034424 301.735077,250.564880 
	C300.257324,259.831238 298.599548,269.069122 296.995453,278.315063 
	C295.696167,285.804108 294.357819,293.286377 293.002625,301.664337 
z"/>
</svg>